<svg width="162" height="21" viewBox="0 0 162 21" fill="none" xmlns="http://www.w3.org/2000/svg">
<path d="M11.0035 15.8633C11.0035 17.1384 10.5072 18.1217 9.51469 18.8134C8.52214 19.5051 7.12908 19.851 5.33551 19.851C3.43747 19.851 1.95734 19.5634 0.895136 18.9884V17.0634C1.58296 17.3967 2.31867 17.6592 3.10227 17.8509C3.89457 18.0426 4.6564 18.1384 5.38775 18.1384C6.51961 18.1384 7.39028 17.9676 7.99974 17.6259C8.6092 17.2759 8.91394 16.7467 8.91394 16.0383C8.91394 15.505 8.67015 15.0508 8.18258 14.6758C7.70371 14.2925 6.7634 13.8424 5.36163 13.3258C4.02952 12.8508 3.0805 12.4382 2.51457 12.0882C1.95734 11.7299 1.53943 11.3257 1.26081 10.8757C0.990909 10.4257 0.855957 9.88817 0.855957 9.26315C0.855957 8.14645 1.33047 7.26726 2.27949 6.62558C3.22851 5.97556 4.53015 5.65055 6.18441 5.65055C7.72548 5.65055 9.23173 5.95056 10.7031 6.55057L9.93261 8.23812C8.49602 7.67144 7.19438 7.3881 6.02769 7.3881C5.00031 7.3881 4.22542 7.54227 3.70302 7.85061C3.18062 8.15895 2.91943 8.58396 2.91943 9.12565C2.91943 9.49232 3.0152 9.80483 3.20674 10.0632C3.407 10.3215 3.72479 10.5674 4.16012 10.8007C4.59545 11.034 5.43129 11.3715 6.66763 11.8132C8.36542 12.4049 9.51034 13.0008 10.1024 13.6008C10.7031 14.2008 11.0035 14.955 11.0035 15.8633Z" fill="white"/>
<path d="M11.0035 15.8633C11.0035 17.1384 10.5072 18.1217 9.51469 18.8134C8.52214 19.5051 7.12908 19.851 5.33551 19.851C3.43747 19.851 1.95734 19.5634 0.895136 18.9884V17.0634C1.58296 17.3967 2.31867 17.6592 3.10227 17.8509C3.89457 18.0426 4.6564 18.1384 5.38775 18.1384C6.51961 18.1384 7.39028 17.9676 7.99974 17.6259C8.6092 17.2759 8.91394 16.7467 8.91394 16.0383C8.91394 15.505 8.67015 15.0508 8.18258 14.6758C7.70371 14.2925 6.7634 13.8424 5.36163 13.3258C4.02952 12.8508 3.0805 12.4382 2.51457 12.0882C1.95734 11.7299 1.53943 11.3257 1.26081 10.8757C0.990909 10.4257 0.855957 9.88817 0.855957 9.26315C0.855957 8.14645 1.33047 7.26726 2.27949 6.62558C3.22851 5.97556 4.53015 5.65055 6.18441 5.65055C7.72548 5.65055 9.23173 5.95056 10.7031 6.55057L9.93261 8.23812C8.49602 7.67144 7.19438 7.3881 6.02769 7.3881C5.00031 7.3881 4.22542 7.54227 3.70302 7.85061C3.18062 8.15895 2.91943 8.58396 2.91943 9.12565C2.91943 9.49232 3.0152 9.80483 3.20674 10.0632C3.407 10.3215 3.72479 10.5674 4.16012 10.8007C4.59545 11.034 5.43129 11.3715 6.66763 11.8132C8.36542 12.4049 9.51034 13.0008 10.1024 13.6008C10.7031 14.2008 11.0035 14.955 11.0035 15.8633Z" fill="url(#paint0_linear)"/>
<path d="M32.7875 19.6009V10.6882C32.7875 9.59649 32.5437 8.7798 32.0561 8.23812C31.5686 7.68811 30.8111 7.4131 29.7837 7.4131C28.4342 7.4131 27.4373 7.78394 26.793 8.52563C26.1487 9.26732 25.8265 10.409 25.8265 11.9507V19.6009H23.6586V10.6882C23.6586 9.59649 23.4148 8.7798 22.9272 8.23812C22.4397 7.68811 21.6778 7.4131 20.6418 7.4131C19.2835 7.4131 18.2866 7.80478 17.651 8.58813C17.0242 9.36315 16.7107 10.6382 16.7107 12.4132V19.6009H14.5428V5.90055H16.3059L16.6585 7.77561H16.763C17.1722 7.10892 17.7468 6.58807 18.4869 6.21306C19.2356 5.83805 20.0715 5.65055 20.9944 5.65055C23.232 5.65055 24.6947 6.42557 25.3825 7.97561H25.487C25.9136 7.25893 26.5318 6.69224 27.3415 6.27557C28.1512 5.85889 29.0741 5.65055 30.1102 5.65055C31.7296 5.65055 32.9399 6.05056 33.7409 6.85058C34.5506 7.64227 34.9554 8.91314 34.9554 10.6632V19.6009H32.7875Z" fill="white"/>
<path d="M32.7875 19.6009V10.6882C32.7875 9.59649 32.5437 8.7798 32.0561 8.23812C31.5686 7.68811 30.8111 7.4131 29.7837 7.4131C28.4342 7.4131 27.4373 7.78394 26.793 8.52563C26.1487 9.26732 25.8265 10.409 25.8265 11.9507V19.6009H23.6586V10.6882C23.6586 9.59649 23.4148 8.7798 22.9272 8.23812C22.4397 7.68811 21.6778 7.4131 20.6418 7.4131C19.2835 7.4131 18.2866 7.80478 17.651 8.58813C17.0242 9.36315 16.7107 10.6382 16.7107 12.4132V19.6009H14.5428V5.90055H16.3059L16.6585 7.77561H16.763C17.1722 7.10892 17.7468 6.58807 18.4869 6.21306C19.2356 5.83805 20.0715 5.65055 20.9944 5.65055C23.232 5.65055 24.6947 6.42557 25.3825 7.97561H25.487C25.9136 7.25893 26.5318 6.69224 27.3415 6.27557C28.1512 5.85889 29.0741 5.65055 30.1102 5.65055C31.7296 5.65055 32.9399 6.05056 33.7409 6.85058C34.5506 7.64227 34.9554 8.91314 34.9554 10.6632V19.6009H32.7875Z" fill="url(#paint1_linear)"/>
<path d="M48.2374 19.6009L47.8064 17.6509H47.7019C46.988 18.5093 46.2741 19.0926 45.5601 19.4009C44.8549 19.701 43.9712 19.851 42.9089 19.851C41.4898 19.851 40.3753 19.5009 39.5656 18.8009C38.7646 18.1009 38.3641 17.105 38.3641 15.8133C38.3641 13.0466 40.6757 11.5966 45.2989 11.4632L47.7281 11.3882V10.5382C47.7281 9.46316 47.4843 8.67147 46.9967 8.16312C46.5178 7.64644 45.7473 7.3881 44.6851 7.3881C43.4923 7.3881 42.1428 7.73811 40.6365 8.43813L39.9705 6.85058C40.6757 6.48391 41.4462 6.1964 42.2821 5.98806C43.1266 5.77972 43.9711 5.67555 44.8157 5.67555C46.5222 5.67555 47.7847 6.03806 48.6031 6.76308C49.4302 7.4881 49.8438 8.65063 49.8438 10.2507V19.6009H48.2374ZM43.3399 18.1384C44.6894 18.1384 45.7473 17.7842 46.5135 17.0759C47.2884 16.3675 47.6758 15.3758 47.6758 14.1008V12.8633L45.5079 12.9508C43.784 13.0091 42.5389 13.2674 41.7727 13.7258C41.0153 14.1758 40.6365 14.88 40.6365 15.8383C40.6365 16.5884 40.8716 17.1592 41.3418 17.5509C41.8206 17.9426 42.4867 18.1384 43.3399 18.1384Z" fill="white"/>
<path d="M48.2374 19.6009L47.8064 17.6509H47.7019C46.988 18.5093 46.2741 19.0926 45.5601 19.4009C44.8549 19.701 43.9712 19.851 42.9089 19.851C41.4898 19.851 40.3753 19.5009 39.5656 18.8009C38.7646 18.1009 38.3641 17.105 38.3641 15.8133C38.3641 13.0466 40.6757 11.5966 45.2989 11.4632L47.7281 11.3882V10.5382C47.7281 9.46316 47.4843 8.67147 46.9967 8.16312C46.5178 7.64644 45.7473 7.3881 44.6851 7.3881C43.4923 7.3881 42.1428 7.73811 40.6365 8.43813L39.9705 6.85058C40.6757 6.48391 41.4462 6.1964 42.2821 5.98806C43.1266 5.77972 43.9711 5.67555 44.8157 5.67555C46.5222 5.67555 47.7847 6.03806 48.6031 6.76308C49.4302 7.4881 49.8438 8.65063 49.8438 10.2507V19.6009H48.2374ZM43.3399 18.1384C44.6894 18.1384 45.7473 17.7842 46.5135 17.0759C47.2884 16.3675 47.6758 15.3758 47.6758 14.1008V12.8633L45.5079 12.9508C43.784 13.0091 42.5389 13.2674 41.7727 13.7258C41.0153 14.1758 40.6365 14.88 40.6365 15.8383C40.6365 16.5884 40.8716 17.1592 41.3418 17.5509C41.8206 17.9426 42.4867 18.1384 43.3399 18.1384Z" fill="url(#paint2_linear)"/>
<path d="M60.8533 5.65055C61.4889 5.65055 62.0592 5.70055 62.5641 5.80055L62.2638 7.72561C61.6717 7.6006 61.1493 7.5381 60.6966 7.5381C59.5386 7.5381 58.546 7.98811 57.7189 8.88814C56.9005 9.78817 56.4913 10.909 56.4913 12.2507V19.6009H54.3233V5.90055H56.1125L56.3607 8.43813H56.4652C56.9963 7.54644 57.6362 6.85892 58.385 6.37557C59.1337 5.89222 59.9565 5.65055 60.8533 5.65055Z" fill="white"/>
<path d="M60.8533 5.65055C61.4889 5.65055 62.0592 5.70055 62.5641 5.80055L62.2638 7.72561C61.6717 7.6006 61.1493 7.5381 60.6966 7.5381C59.5386 7.5381 58.546 7.98811 57.7189 8.88814C56.9005 9.78817 56.4913 10.909 56.4913 12.2507V19.6009H54.3233V5.90055H56.1125L56.3607 8.43813H56.4652C56.9963 7.54644 57.6362 6.85892 58.385 6.37557C59.1337 5.89222 59.9565 5.65055 60.8533 5.65055Z" fill="url(#paint3_linear)"/>
<path d="M69.8646 18.1384C70.2477 18.1384 70.6178 18.1134 70.9747 18.0634C71.3317 18.0051 71.6147 17.9467 71.8236 17.8884V19.4759C71.5886 19.5843 71.2403 19.6718 70.7788 19.7385C70.3261 19.8135 69.9169 19.851 69.5512 19.851C66.7825 19.851 65.3981 18.4551 65.3981 15.6633V7.5131H63.3477V6.51307L65.3981 5.65055L66.3123 2.72546H67.5661V5.90055H71.7192V7.5131H67.5661V15.5758C67.5661 16.4009 67.7707 17.0342 68.1799 17.4759C68.5891 17.9176 69.1507 18.1384 69.8646 18.1384Z" fill="white"/>
<path d="M69.8646 18.1384C70.2477 18.1384 70.6178 18.1134 70.9747 18.0634C71.3317 18.0051 71.6147 17.9467 71.8236 17.8884V19.4759C71.5886 19.5843 71.2403 19.6718 70.7788 19.7385C70.3261 19.8135 69.9169 19.851 69.5512 19.851C66.7825 19.851 65.3981 18.4551 65.3981 15.6633V7.5131H63.3477V6.51307L65.3981 5.65055L66.3123 2.72546H67.5661V5.90055H71.7192V7.5131H67.5661V15.5758C67.5661 16.4009 67.7707 17.0342 68.1799 17.4759C68.5891 17.9176 69.1507 18.1384 69.8646 18.1384Z" fill="url(#paint4_linear)"/>
<path d="M125.36 19.6009V10.7382C125.36 9.6215 125.094 8.78814 124.563 8.23812C124.032 7.68811 123.2 7.4131 122.069 7.4131C120.562 7.4131 119.461 7.80478 118.764 8.58813C118.077 9.37149 117.733 10.6549 117.733 12.4382V19.6009H115.565V0.150391H117.733V6.03806C117.733 6.74641 117.698 7.33393 117.628 7.80061H117.759C118.185 7.14226 118.791 6.62558 119.574 6.25057C120.366 5.86722 121.268 5.67555 122.278 5.67555C124.028 5.67555 125.338 6.07556 126.209 6.87558C127.088 7.66727 127.528 8.92981 127.528 10.6632V19.6009H125.36Z" fill="white"/>
<path d="M125.36 19.6009V10.7382C125.36 9.6215 125.094 8.78814 124.563 8.23812C124.032 7.68811 123.2 7.4131 122.069 7.4131C120.562 7.4131 119.461 7.80478 118.764 8.58813C118.077 9.37149 117.733 10.6549 117.733 12.4382V19.6009H115.565V0.150391H117.733V6.03806C117.733 6.74641 117.698 7.33393 117.628 7.80061H117.759C118.185 7.14226 118.791 6.62558 119.574 6.25057C120.366 5.86722 121.268 5.67555 122.278 5.67555C124.028 5.67555 125.338 6.07556 126.209 6.87558C127.088 7.66727 127.528 8.92981 127.528 10.6632V19.6009H125.36Z" fill="url(#paint5_linear)"/>
<path d="M134.031 5.90055V14.7883C134.031 15.905 134.297 16.7384 134.828 17.2884C135.359 17.8384 136.191 18.1134 137.323 18.1134C138.82 18.1134 139.913 17.7217 140.601 16.9384C141.297 16.155 141.645 14.8758 141.645 13.1008V5.90055H143.813V19.6009H142.024L141.711 17.7634H141.593C141.149 18.4384 140.531 18.9551 139.739 19.3134C138.955 19.6718 138.058 19.851 137.048 19.851C135.307 19.851 134.001 19.4551 133.13 18.6634C132.268 17.8717 131.837 16.605 131.837 14.8633V5.90055H134.031Z" fill="white"/>
<path d="M134.031 5.90055V14.7883C134.031 15.905 134.297 16.7384 134.828 17.2884C135.359 17.8384 136.191 18.1134 137.323 18.1134C138.82 18.1134 139.913 17.7217 140.601 16.9384C141.297 16.155 141.645 14.8758 141.645 13.1008V5.90055H143.813V19.6009H142.024L141.711 17.7634H141.593C141.149 18.4384 140.531 18.9551 139.739 19.3134C138.955 19.6718 138.058 19.851 137.048 19.851C135.307 19.851 134.001 19.4551 133.13 18.6634C132.268 17.8717 131.837 16.605 131.837 14.8633V5.90055H134.031Z" fill="url(#paint6_linear)"/>
<path d="M155.084 5.67555C156.965 5.67555 158.423 6.29223 159.459 7.5256C160.504 8.75064 161.026 10.4882 161.026 12.7383C161.026 14.9883 160.5 16.7384 159.446 17.9884C158.401 19.2301 156.947 19.851 155.084 19.851C154.152 19.851 153.299 19.6884 152.524 19.3634C151.758 19.0301 151.114 18.5218 150.591 17.8384H150.435L149.978 19.6009H148.423V0.150391H150.591V4.87553C150.591 5.93389 150.557 6.88392 150.487 7.72561H150.591C151.601 6.3589 153.099 5.67555 155.084 5.67555ZM154.771 7.4131C153.29 7.4131 152.224 7.82144 151.571 8.63813C150.918 9.44649 150.591 10.8132 150.591 12.7383C150.591 14.6633 150.927 16.0425 151.597 16.8759C152.267 17.7009 153.343 18.1134 154.823 18.1134C156.155 18.1134 157.148 17.6509 157.801 16.7259C158.454 15.7925 158.78 14.455 158.78 12.7132C158.78 10.9299 158.454 9.60066 157.801 8.72564C157.148 7.85061 156.138 7.4131 154.771 7.4131Z" fill="white"/>
<path d="M155.084 5.67555C156.965 5.67555 158.423 6.29223 159.459 7.5256C160.504 8.75064 161.026 10.4882 161.026 12.7383C161.026 14.9883 160.5 16.7384 159.446 17.9884C158.401 19.2301 156.947 19.851 155.084 19.851C154.152 19.851 153.299 19.6884 152.524 19.3634C151.758 19.0301 151.114 18.5218 150.591 17.8384H150.435L149.978 19.6009H148.423V0.150391H150.591V4.87553C150.591 5.93389 150.557 6.88392 150.487 7.72561H150.591C151.601 6.3589 153.099 5.67555 155.084 5.67555ZM154.771 7.4131C153.29 7.4131 152.224 7.82144 151.571 8.63813C150.918 9.44649 150.591 10.8132 150.591 12.7383C150.591 14.6633 150.927 16.0425 151.597 16.8759C152.267 17.7009 153.343 18.1134 154.823 18.1134C156.155 18.1134 157.148 17.6509 157.801 16.7259C158.454 15.7925 158.78 14.455 158.78 12.7132C158.78 10.9299 158.454 9.60066 157.801 8.72564C157.148 7.85061 156.138 7.4131 154.771 7.4131Z" fill="url(#paint7_linear)"/>
<path fill-rule="evenodd" clip-rule="evenodd" d="M104.717 14.6757L98.7404 20.3962L97.2444 18.9643L103.17 13.2921C103.7 12.7854 104.017 12.0845 104.017 11.3564C104.017 10.6186 103.711 9.90725 103.161 9.41155L99.483 5.89136C98.9543 5.3853 98.2386 5.0948 97.5112 5.0948C96.7734 5.0948 96.0469 5.37427 95.5297 5.90062L89.5628 11.6119L88.0668 10.18L90.7289 7.63196L93.9929 4.50778C94.9346 3.60645 96.1837 3.10826 97.5112 3.10826C98.8699 3.10826 100.114 3.60879 101.022 4.50076L101.022 4.5008L101.03 4.50778L104.717 8.03719C105.658 8.93749 106.164 10.1171 106.164 11.3564C106.164 12.6257 105.655 13.8001 104.724 14.6687L104.724 14.6687L104.717 14.6757ZM85.9698 17.0879L85.9699 17.0879L85.9626 17.0809L82.2752 13.5515C80.3637 11.7219 80.3635 8.71716 82.2746 6.88738L82.2752 6.88687L88.2506 1.19141L89.7477 2.62441L83.8216 8.29659C82.7014 9.36881 82.7014 11.1218 83.8216 12.1941L87.509 15.7235C88.0378 16.2295 88.7535 16.52 89.4809 16.52C90.219 16.52 90.9458 16.2403 91.463 15.7136L97.4304 9.97793L98.9253 11.4087L92.9992 17.0809L92.9991 17.0809L92.9919 17.0879C92.0833 17.9799 90.8396 18.4804 89.4809 18.4804C88.1222 18.4804 86.8784 17.9799 85.9698 17.0879Z" fill="white"/>
<path fill-rule="evenodd" clip-rule="evenodd" d="M104.717 14.6757L98.7404 20.3962L97.2444 18.9643L103.17 13.2921C103.7 12.7854 104.017 12.0845 104.017 11.3564C104.017 10.6186 103.711 9.90725 103.161 9.41155L99.483 5.89136C98.9543 5.3853 98.2386 5.0948 97.5112 5.0948C96.7734 5.0948 96.0469 5.37427 95.5297 5.90062L89.5628 11.6119L88.0668 10.18L90.7289 7.63196L93.9929 4.50778C94.9346 3.60645 96.1837 3.10826 97.5112 3.10826C98.8699 3.10826 100.114 3.60879 101.022 4.50076L101.022 4.5008L101.03 4.50778L104.717 8.03719C105.658 8.93749 106.164 10.1171 106.164 11.3564C106.164 12.6257 105.655 13.8001 104.724 14.6687L104.724 14.6687L104.717 14.6757ZM85.9698 17.0879L85.9699 17.0879L85.9626 17.0809L82.2752 13.5515C80.3637 11.7219 80.3635 8.71716 82.2746 6.88738L82.2752 6.88687L88.2506 1.19141L89.7477 2.62441L83.8216 8.29659C82.7014 9.36881 82.7014 11.1218 83.8216 12.1941L87.509 15.7235C88.0378 16.2295 88.7535 16.52 89.4809 16.52C90.219 16.52 90.9458 16.2403 91.463 15.7136L97.4304 9.97793L98.9253 11.4087L92.9992 17.0809L92.9991 17.0809L92.9919 17.0879C92.0833 17.9799 90.8396 18.4804 89.4809 18.4804C88.1222 18.4804 86.8784 17.9799 85.9698 17.0879Z" fill="url(#paint8_linear)"/>
<defs>
<linearGradient id="paint0_linear" x1="80.9411" y1="0.150391" x2="80.9411" y2="19.851" gradientUnits="userSpaceOnUse">
<stop stop-color="white"/>
<stop offset="1" stop-color="white" stop-opacity="0"/>
</linearGradient>
<linearGradient id="paint1_linear" x1="80.9411" y1="0.150391" x2="80.9411" y2="19.851" gradientUnits="userSpaceOnUse">
<stop stop-color="white"/>
<stop offset="1" stop-color="white" stop-opacity="0"/>
</linearGradient>
<linearGradient id="paint2_linear" x1="80.9411" y1="0.150391" x2="80.9411" y2="19.851" gradientUnits="userSpaceOnUse">
<stop stop-color="white"/>
<stop offset="1" stop-color="white" stop-opacity="0"/>
</linearGradient>
<linearGradient id="paint3_linear" x1="80.9411" y1="0.150391" x2="80.9411" y2="19.851" gradientUnits="userSpaceOnUse">
<stop stop-color="white"/>
<stop offset="1" stop-color="white" stop-opacity="0"/>
</linearGradient>
<linearGradient id="paint4_linear" x1="80.9411" y1="0.150391" x2="80.9411" y2="19.851" gradientUnits="userSpaceOnUse">
<stop stop-color="white"/>
<stop offset="1" stop-color="white" stop-opacity="0"/>
</linearGradient>
<linearGradient id="paint5_linear" x1="80.9411" y1="0.150391" x2="80.9411" y2="19.851" gradientUnits="userSpaceOnUse">
<stop stop-color="white"/>
<stop offset="1" stop-color="white" stop-opacity="0"/>
</linearGradient>
<linearGradient id="paint6_linear" x1="80.9411" y1="0.150391" x2="80.9411" y2="19.851" gradientUnits="userSpaceOnUse">
<stop stop-color="white"/>
<stop offset="1" stop-color="white" stop-opacity="0"/>
</linearGradient>
<linearGradient id="paint7_linear" x1="80.9411" y1="0.150391" x2="80.9411" y2="19.851" gradientUnits="userSpaceOnUse">
<stop stop-color="white"/>
<stop offset="1" stop-color="white" stop-opacity="0"/>
</linearGradient>
<linearGradient id="paint8_linear" x1="93.5029" y1="1.19141" x2="93.5029" y2="20.3962" gradientUnits="userSpaceOnUse">
<stop stop-color="white"/>
<stop offset="1" stop-color="white" stop-opacity="0"/>
</linearGradient>
</defs>
</svg>
